<?xml version="1.0" standalone="no"?>
<!DOCTYPE svg PUBLIC "-//W3C//DTD SVG 20010904//EN"
 "http://www.w3.org/TR/2001/REC-SVG-20010904/DTD/svg10.dtd">
<svg version="1.0" xmlns="http://www.w3.org/2000/svg"
 width="16.000000pt" height="16.000000pt" viewBox="0 0 16.000000 16.000000"
 preserveAspectRatio="xMidYMid meet">
<metadata>
Created by potrace 1.11, written by Peter Selinger 2001-2013
</metadata>
<g transform="translate(0.000000,16.000000) scale(0.006154,-0.006154)"
fill="#000000" stroke="none">
<path d="M842 2553 c-5 -10 -15 -34 -21 -54 -28 -86 -119 -187 -306 -339 -82
-66 -191 -170 -216 -205 -8 -11 -34 -33 -57 -49 -86 -58 -163 -170 -191 -274
-30 -108 -14 -245 39 -352 15 -30 26 -62 25 -70 -1 -8 -5 -58 -9 -110 -3 -52
-9 -122 -12 -155 -18 -218 -9 -402 27 -508 100 -295 447 -421 1164 -420 177 0
384 8 430 17 11 2 47 7 80 11 91 10 243 44 313 71 263 98 375 258 375 529 0
69 -11 250 -18 284 -2 10 -6 54 -10 97 -4 43 -8 95 -10 114 -3 27 4 45 30 80
31 42 70 125 82 175 10 43 11 162 1 210 -28 135 -140 280 -262 339 -32 15 -89
54 -128 86 -129 109 -216 145 -658 271 -398 114 -450 134 -576 220 -39 27 -73
49 -77 49 -3 0 -10 -8 -15 -17z"/>
</g>
</svg>
